<?xml version="1.0" encoding="UTF-8"?>
<svg version="1.1" xmlns="http://www.w3.org/2000/svg" width="898" height="182">
<path d="M0 0 C1.05695337 -0.00891337 1.05695337 -0.00891337 2.13525933 -0.0180068 C4.50820437 -0.03541934 6.88094807 -0.03840042 9.25395203 -0.04138184 C10.95055068 -0.05063553 12.64714515 -0.06068449 14.34373474 -0.07147217 C18.96157172 -0.09775088 23.57935051 -0.11061608 28.1972506 -0.11949348 C31.08082062 -0.12535027 33.96437464 -0.133559 36.84793663 -0.14250183 C45.86558406 -0.16986038 54.88319504 -0.1891892 63.90088111 -0.19690561 C74.31858267 -0.20586834 84.73575955 -0.2409667 95.15330154 -0.2989068 C103.20007353 -0.342111 111.24669775 -0.36231258 119.29358453 -0.36498785 C124.10225233 -0.36708618 128.91042724 -0.37894701 133.71897316 -0.41462708 C138.24257342 -0.44753873 142.76530904 -0.45192542 147.28898621 -0.43434906 C148.9494578 -0.43280552 150.60997539 -0.44153121 152.27033043 -0.46126556 C154.53786197 -0.48663627 156.80231496 -0.47500094 159.06982422 -0.45410156 C160.33837911 -0.45703468 161.60693399 -0.4599678 162.91392994 -0.46298981 C167.59882527 0.58940775 168.60345074 2.3093705 171.22538757 6.28088379 C172.60312989 9.65733493 172.3593 13.16530614 172.37255859 16.7822876 C172.37623528 17.43342915 172.37991197 18.0845707 172.38370007 18.75544381 C172.39470566 20.93548133 172.39857541 23.11547113 172.40238953 25.29553223 C172.40865651 26.85947825 172.41530352 28.4234228 172.42230225 29.98736572 C172.44331609 35.12165292 172.45370174 40.25594032 172.46366882 45.39025879 C172.4677173 47.15950791 172.47183425 48.92875687 172.47601891 50.69800568 C172.49506425 59.01032084 172.50929698 67.32262715 172.51763088 75.63495994 C172.52740293 85.22274992 172.55372432 94.81030901 172.59413177 104.39801764 C172.62431108 111.81387518 172.63910145 119.2296666 172.64241189 126.64558434 C172.64476018 131.07247942 172.65369192 135.49912765 172.67887306 139.92595673 C172.70219086 144.0924129 172.70637225 148.25846033 172.69611168 152.4249649 C172.69561712 153.95032615 172.70191409 155.47570777 172.71566772 157.00100708 C172.8403413 171.65246462 172.8403413 171.65246462 168.22538757 178.28088379 C164.30660013 182.13125843 161.76804421 182.78301417 156.32452393 182.79554749 C155.64253195 182.80249301 154.96053998 182.80943854 154.25788158 182.81659454 C151.97921802 182.83484892 149.70159747 182.82460549 147.42289734 182.81433105 C145.78658775 182.82139039 144.15028469 182.83013547 142.51399231 182.84043884 C138.07383749 182.86294157 133.63403898 182.85999104 129.19384885 182.85111737 C125.48602915 182.84600726 121.7782764 182.85330026 118.0704636 182.86058944 C109.32281038 182.87759138 100.57533159 182.8740198 91.8276825 182.8572998 C82.80538332 182.84037776 73.78356794 182.8562134 64.7613216 182.88852268 C57.01253479 182.9152196 49.26389856 182.92249433 41.51507038 182.9140076 C36.88815795 182.90907871 32.26153661 182.91129189 27.63466072 182.93179512 C23.28339871 182.95015392 18.93283246 182.94419151 14.58160782 182.91959572 C12.98608306 182.9145884 11.39050528 182.91807563 9.79502296 182.93074417 C7.61362908 182.94669276 5.43452144 182.93171182 3.25323486 182.90907288 C2.03374429 182.90848657 0.81425371 182.90790026 -0.44219112 182.90729618 C-5.42285514 181.97105512 -8.14946839 179.54230048 -11.1333189 175.39021969 C-12.04485115 172.39201742 -12.03001065 169.66458195 -12.03530884 166.5315094 C-12.03913438 165.85374984 -12.04295993 165.17599028 -12.0469014 164.47769254 C-12.05721647 162.20766493 -12.05324217 159.93789095 -12.04927063 157.66784668 C-12.05361793 156.0399197 -12.05880114 154.41199476 -12.0647583 152.78407288 C-12.07815746 148.3626044 -12.07872596 143.94122135 -12.076195 139.51973653 C-12.07512593 135.82928765 -12.080007 132.1388561 -12.08480042 128.44841093 C-12.09589873 119.74257166 -12.09633116 111.03677554 -12.09028625 102.33093262 C-12.08424486 93.34794676 -12.09656094 84.36511748 -12.11785632 75.38215834 C-12.13546541 67.67080055 -12.14147479 59.95949263 -12.13821858 52.24811548 C-12.13640451 47.64196577 -12.13905424 43.03592774 -12.15293312 38.42979622 C-12.16549563 34.09841087 -12.16358238 29.76726982 -12.15052223 25.43588829 C-12.14815347 23.84639021 -12.15090186 22.25687502 -12.15914536 20.66739655 C-12.16958957 18.49706066 -12.16153176 16.32754803 -12.14883423 14.15724182 C-12.14900197 12.94290498 -12.14916971 11.72856813 -12.14934254 10.4774332 C-11.22246693 2.57093305 -7.47870211 0.03510525 0 0 Z M26.35038757 12.53088379 C23.96011002 16.19340585 23.58704585 18.89228445 24.22538757 23.28088379 C26.21023599 28.34224724 28.68642065 31.87034661 33.47538757 34.53088379 C36.11307783 35.25025386 37.62087469 35.22880682 40.28788757 35.03088379 C44.22538757 35.28088379 44.22538757 35.28088379 46.41288757 37.65588379 C47.05138029 38.8464357 47.65168263 40.05779367 48.22538757 41.28088379 C48.60050476 42.0195166 48.97562195 42.75814941 49.36210632 43.51916504 C50.20653787 45.18938137 51.03941887 46.8654756 51.86210632 48.54650879 C54.71354415 54.26572507 57.67890782 59.96116416 61.22538757 65.28088379 C61.66288757 67.78088379 61.66288757 67.78088379 61.22538757 70.28088379 C59.58748046 71.32732445 57.91530736 72.32070209 56.22538757 73.28088379 C51.63768643 79.2587974 48.38578615 86.0795552 46.22538757 93.28088379 C38.83483998 93.42804071 31.58113922 92.98865371 24.22538757 92.28088379 C24.01913757 91.39400879 23.81288757 90.50713379 23.60038757 89.59338379 C21.85968925 85.39988329 19.9987256 83.77271079 16.22538757 81.28088379 C12.15429982 80.11771586 10.03510622 79.99510074 6.03788757 81.40588379 C2.86643669 83.52018438 1.10878799 84.94871382 -0.77461243 88.28088379 C-1.46657621 92.55706449 -1.22874265 96.12032877 0.35038757 100.15588379 C2.81109518 102.94468574 4.69105696 104.08054509 8.22538757 105.28088379 C12.96860733 105.28088379 15.89772814 104.88480225 19.66288757 101.96838379 C22.5494927 99.38395789 22.5494927 99.38395789 23.22538757 95.28088379 C30.48538757 95.94088379 37.74538757 96.60088379 45.22538757 97.28088379 C45.72038757 100.04463379 46.21538757 102.80838379 46.72538757 105.65588379 C48.75360049 115.61688176 52.84745212 122.31534493 61.22538757 128.28088379 C60.33376573 133.18680011 57.41534536 135.56982593 53.97538757 138.96838379 C53.40175476 139.56199707 52.82812195 140.15561035 52.23710632 140.76721191 C46.80579768 146.19233456 46.80579768 146.19233456 42.22538757 146.28088379 C41.46226257 145.95088379 40.69913757 145.62088379 39.91288757 145.28088379 C36.17621422 143.8904937 32.97340112 144.15134546 29.22538757 145.28088379 C25.79975414 147.16309996 23.64375026 149.49872746 21.78788757 152.96838379 C20.89030186 158.25416635 20.37975237 163.62978351 23.57695007 168.22229004 C27.00013542 171.46571908 30.43823106 173.25774712 35.17460632 173.51525879 C40.21227078 172.93952571 43.94239467 170.37142776 47.72538757 167.15588379 C49.94553763 162.90059618 49.65692414 158.98533983 49.22538757 154.28088379 C48.90054382 153.34631348 48.57570007 152.41174316 48.24101257 151.44885254 C48.22218035 147.63061882 48.85063085 147.16468155 51.40898132 144.48400879 C52.80988431 143.14817143 54.22872712 141.83095088 55.66288757 140.53088379 C57.08214581 139.20692042 58.49772137 137.87899454 59.90898132 136.54650879 C60.54376404 135.96675293 61.17854675 135.38699707 61.83256531 134.78967285 C63.45148917 133.37818808 63.45148917 133.37818808 63.22538757 131.28088379 C63.9292157 131.49744629 64.63304382 131.71400879 65.35820007 131.93713379 C77.50514285 135.36238136 88.67789993 135.88090434 100.22538757 130.28088379 C101.21538757 129.62088379 102.20538757 128.96088379 103.22538757 128.28088379 C103.22538757 127.62088379 103.22538757 126.96088379 103.22538757 126.28088379 C104.00913757 126.05400879 104.79288757 125.82713379 105.60038757 125.59338379 C108.44413757 124.49963379 108.44413757 124.49963379 109.53788757 121.65588379 C109.76476257 120.87213379 109.99163757 120.08838379 110.22538757 119.28088379 C110.88538757 119.28088379 111.54538757 119.28088379 112.22538757 119.28088379 C112.87896035 118.05581481 113.5228699 116.82558863 114.16288757 115.59338379 C114.52253601 114.9088916 114.88218445 114.22439941 115.25273132 113.51916504 C116.48432067 110.90030785 116.48432067 110.90030785 117.22538757 106.28088379 C128.11538757 106.77588379 128.11538757 106.77588379 139.22538757 107.28088379 C139.55538757 109.26088379 139.88538757 111.24088379 140.22538757 113.28088379 C141.07284391 116.13790086 141.07284391 116.13790086 143.22538757 118.28088379 C147.74012829 120.2673697 151.25635009 120.5191717 156.03788757 119.34338379 C159.88464466 116.85430567 161.84762246 114.65731416 163.22538757 110.28088379 C163.30512817 105.65592925 162.77400135 103.91178963 159.72538757 100.40588379 C158.90038757 99.70463379 158.07538757 99.00338379 157.22538757 98.28088379 C156.89538757 97.95088379 156.56538757 97.62088379 156.22538757 97.28088379 C151.97536252 96.82426953 148.26933316 96.85886323 144.28788757 98.46838379 C141.89484307 100.5713623 141.30269304 102.32916343 140.22538757 105.28088379 C137.12056052 104.80593327 134.01665657 104.3251963 130.91288757 103.84338379 C129.59127625 103.64132324 129.59127625 103.64132324 128.2429657 103.43518066 C127.3954071 103.30305176 126.54784851 103.17092285 125.67460632 103.03479004 C124.89432068 102.91434326 124.11403503 102.79389648 123.31010437 102.6697998 C121.22538757 102.28088379 121.22538757 102.28088379 118.22538757 101.28088379 C118.16222351 100.32568848 118.09905945 99.37049316 118.03398132 98.38635254 C116.91741631 86.59777669 113.58805718 78.70916409 104.35038757 70.78088379 C96.81286999 65.22153824 88.5836877 63.03021504 79.22538757 63.28088379 C74.49188727 64.04231775 69.86598266 65.08178112 65.22538757 66.28088379 C64.79999695 65.4210791 64.37460632 64.56127441 63.93632507 63.67541504 C56.64629356 49.15596016 56.64629356 49.15596016 48.22538757 35.28088379 C47.84038866 33.62538848 47.49745623 31.95864049 47.22538757 30.28088379 C48.21538757 29.95088379 49.20538757 29.62088379 50.22538757 29.28088379 C53.05764832 24.22327531 53.79755859 21.04551084 52.22538757 15.28088379 C50.21625815 11.26262494 48.79601935 9.59790144 44.85038757 7.40588379 C37.26210385 5.05089918 31.43635237 6.15551946 26.35038757 12.53088379 Z " fill="#101010" transform="translate(11.774612426757813,-0.2808837890625)"/>
<path d="M0 0 C0.84288574 -0.0033284 1.68577148 -0.0066568 2.55419922 -0.01008606 C4.34651137 -0.01516282 6.13883301 -0.01749416 7.93115234 -0.01733398 C10.6482762 -0.01949998 13.36498044 -0.0375901 16.08203125 -0.05664062 C17.82551945 -0.05957866 19.56900958 -0.06156071 21.3125 -0.0625 C22.11598877 -0.06968552 22.91947754 -0.07687103 23.74731445 -0.08427429 C33.70833454 -0.04482739 41.63388341 2.17491712 49.6875 8.16796875 C54.72903357 13.33554066 55.26154853 20.21349186 55.6875 27.16796875 C55.58143259 33.47014079 54.10678087 37.19869709 49.6875 41.73046875 C47.71658025 43.53110683 46.07213171 44.97565289 43.6875 46.16796875 C44.26757812 46.50828125 44.84765625 46.84859375 45.4453125 47.19921875 C51.94484093 51.23192946 57.20928826 55.73333354 59.6875 63.16796875 C59.83453064 65.60245693 59.90855339 68.04171645 59.9375 70.48046875 C59.96328125 71.77597656 59.9890625 73.07148437 60.015625 74.40625 C59.66657062 78.40790913 58.69699559 80.72949852 56.6875 84.16796875 C56.171875 85.15796875 55.65625 86.14796875 55.125 87.16796875 C49.55622305 94.02184807 42.17167091 96.77145021 33.6875 98.16796875 C30.33917928 98.41816624 27.01264528 98.42618707 23.65625 98.3984375 C22.73912231 98.39797928 21.82199463 98.39752106 20.8770752 98.39704895 C18.95775034 98.39405013 17.0384274 98.3862359 15.11914062 98.3737793 C12.16788231 98.35534622 9.21693529 98.35327115 6.265625 98.35351562 C4.3958306 98.34860616 2.52603833 98.34278036 0.65625 98.3359375 C-0.22905396 98.33482468 -1.11435791 98.33371185 -2.02648926 98.33256531 C-8.19639527 98.28407348 -8.19639527 98.28407348 -9.3125 97.16796875 C-9.4131127 94.19035505 -9.44864893 91.23589708 -9.44189453 88.2578125 C-9.44364685 87.32292999 -9.44539917 86.38804749 -9.44720459 85.42483521 C-9.45162474 82.31836113 -9.44868454 79.21194346 -9.4453125 76.10546875 C-9.44598549 73.95694976 -9.44695548 71.80843084 -9.44821167 69.65991211 C-9.44968886 65.15054603 -9.44753339 60.64119972 -9.44287109 56.13183594 C-9.4371738 50.33748298 -9.44045269 44.54317633 -9.44644356 38.74882507 C-9.45004859 34.31033984 -9.44891085 29.87186568 -9.44631577 25.43338013 C-9.44564634 23.29623408 -9.44647547 21.15908704 -9.44879532 19.02194214 C-9.4513209 16.04064249 -9.44748259 13.05941895 -9.44189453 10.078125 C-9.44391876 9.18562042 -9.44594299 8.29311584 -9.44802856 7.37356567 C-9.41906908 -0.9213618 -7.57514509 0.01028422 0 0 Z M6.6875 14.16796875 C6.6875 22.74796875 6.6875 31.32796875 6.6875 40.16796875 C22.74468876 41.37955968 22.74468876 41.37955968 37.25 36.10546875 C39.6099414 31.28297979 40.2299926 26.60918546 39.0625 21.35546875 C36.96014573 18.01081424 34.19855968 15.92349859 30.6875 14.16796875 C28.87408158 14.08325511 27.05755839 14.06075792 25.2421875 14.0703125 C24.27265137 14.07281006 23.30311523 14.07530762 22.30419922 14.07788086 C21.06943848 14.08698486 19.83467773 14.09608887 18.5625 14.10546875 C14.64375 14.12609375 10.725 14.14671875 6.6875 14.16796875 Z M6.6875 54.16796875 C6.6875 64.06796875 6.6875 73.96796875 6.6875 84.16796875 C10.998125 84.27109375 15.30875 84.37421875 19.75 84.48046875 C21.09586182 84.52598877 22.44172363 84.57150879 23.82836914 84.6184082 C31.27222868 84.79305347 31.27222868 84.79305347 37.9296875 81.8828125 C41.27280447 78.59178375 43.05406077 75.83541574 43.6875 71.16796875 C43.29178633 66.54116273 42.11549241 62.14552766 39.6875 58.16796875 C32.8391422 53.76874914 25.43535069 53.65961762 17.5625 53.91796875 C13.97375 54.00046875 10.385 54.08296875 6.6875 54.16796875 Z " fill="#111111" transform="translate(667.3125,40.83203125)"/>
<path d="M0 0 C7.98146802 6.75614405 15.71492067 16.55030213 17.01049805 27.31787109 C18.25162102 45.90029628 17.74396441 61.96087513 5.2109375 76.97265625 C2.34772451 79.96978343 -0.63299291 82.25140732 -4.2265625 84.34765625 C-5.2165625 85.00765625 -6.2065625 85.66765625 -7.2265625 86.34765625 C-19.93206278 93.38454871 -34.52500472 94.20850621 -48.31640625 90.34765625 C-53.11910494 88.69733294 -57.68436584 86.60981325 -62.2265625 84.34765625 C-62.2265625 83.68765625 -62.2265625 83.02765625 -62.2265625 82.34765625 C-62.9484375 82.12078125 -63.6703125 81.89390625 -64.4140625 81.66015625 C-73.21002556 77.55537349 -78.70161087 66.07869028 -82.2265625 57.34765625 C-83.52886333 51.79370876 -83.44888115 46.33829241 -83.4765625 40.66015625 C-83.4971875 39.62181641 -83.5178125 38.58347656 -83.5390625 37.51367188 C-83.61002794 23.36493743 -78.63094068 12.78517288 -68.9140625 2.53515625 C-50.10456699 -15.16603565 -20.25135663 -15.37603003 0 0 Z M-59.2265625 16.34765625 C-59.92394531 17.00507812 -60.62132812 17.6625 -61.33984375 18.33984375 C-66.74193638 24.08865454 -68.33319616 33.67003296 -68.2265625 41.34765625 C-67.07302706 53.69935877 -62.95401642 63.7884999 -53.41796875 71.8828125 C-45.53232879 77.50604432 -34.83801946 78.21535103 -25.48828125 76.98828125 C-15.66007755 75.14002947 -10.23423319 69.98811705 -3.8515625 62.59765625 C1.41742337 52.05968451 3.84494255 40.80401713 0.4609375 29.3125 C-3.64848517 17.56795681 -9.3066803 10.92112312 -20.375 5.24609375 C-35.08084022 0.61274683 -49.80901533 4.13902151 -59.2265625 16.34765625 Z " fill="#101011" transform="translate(624.2265625,49.65234375)"/>
<path d="M0 0 C2.0390625 1.62109375 2.0390625 1.62109375 4.0390625 3.62109375 C3.74022817 7.2684051 1.88504323 9.24366023 -0.5234375 11.87109375 C-1.16410156 12.5775 -1.80476563 13.28390625 -2.46484375 14.01171875 C-2.95855469 14.5428125 -3.45226562 15.07390625 -3.9609375 15.62109375 C-7.53459023 15.06891477 -9.9753696 14.21209452 -12.9609375 12.18359375 C-19.24715888 7.93785955 -24.31299026 7.25707307 -31.7734375 7.24609375 C-33.06991211 7.20935547 -33.06991211 7.20935547 -34.39257812 7.171875 C-40.54264986 7.14402562 -44.74263213 8.4051441 -49.9609375 11.62109375 C-51.600625 12.61109375 -51.600625 12.61109375 -53.2734375 13.62109375 C-55.75891221 15.47074935 -57.18425061 17.13373211 -58.9609375 19.62109375 C-59.6209375 19.62109375 -60.2809375 19.62109375 -60.9609375 19.62109375 C-61.0434375 20.28109375 -61.1259375 20.94109375 -61.2109375 21.62109375 C-61.88050669 24.29937051 -62.68420012 26.14852065 -63.9609375 28.55859375 C-65.71337199 31.95552293 -66.6397948 34.7673814 -66.9609375 38.62109375 C-67.0640625 39.79671875 -67.1671875 40.97234375 -67.2734375 42.18359375 C-67.08932207 52.86228896 -62.39347641 63.09135235 -54.99609375 70.62109375 C-46.98641587 77.57343621 -38.27864859 79.05573983 -27.8984375 78.43359375 C-21.41611921 77.93186633 -15.43875278 76.79887835 -8.9609375 75.62109375 C-8.9609375 67.70109375 -8.9609375 59.78109375 -8.9609375 51.62109375 C-15.497966 51.66067634 -15.497966 51.66067634 -22.03491211 51.71118164 C-22.84452393 51.7136792 -23.65413574 51.71617676 -24.48828125 51.71875 C-25.73726196 51.72660522 -25.73726196 51.72660522 -27.01147461 51.73461914 C-28.9609375 51.62109375 -28.9609375 51.62109375 -29.9609375 50.62109375 C-29.9609375 46.00109375 -29.9609375 41.38109375 -29.9609375 36.62109375 C-18.0809375 36.62109375 -6.2009375 36.62109375 6.0390625 36.62109375 C6.15374793 43.54554503 6.25332153 50.46671358 6.3137207 57.39135742 C6.3388924 59.74759067 6.37303243 62.10374563 6.41625977 64.4597168 C6.47679235 67.84313241 6.50524595 71.22551747 6.52734375 74.609375 C6.56605339 76.19387199 6.56605339 76.19387199 6.60554504 77.81037903 C6.60658293 80.5058222 6.57012326 82.97856059 6.0390625 85.62109375 C3.69482422 87.74072266 3.69482422 87.74072266 1.0390625 88.62109375 C-0.43626953 89.16443359 -0.43626953 89.16443359 -1.94140625 89.71875 C-5.27270757 90.72098073 -8.60788831 91.69407427 -11.9609375 92.62109375 C-13.20230469 92.96720703 -13.20230469 92.96720703 -14.46875 93.3203125 C-29.49512215 96.91136076 -46.40056408 95.09259361 -59.9609375 87.62109375 C-70.48453316 81.12373206 -79.08015863 70.62108544 -82.1484375 58.49609375 C-84.34492213 46.21067122 -85.12992274 29.62081562 -78.75390625 18.51953125 C-77.56483882 16.83112735 -76.2668507 15.22083742 -74.9609375 13.62109375 C-74.4659375 12.75484375 -73.9709375 11.88859375 -73.4609375 10.99609375 C-68.13514408 2.5635875 -58.47421518 -3.69857801 -48.9609375 -6.37890625 C-48.31125 -6.58257812 -47.6615625 -6.78625 -46.9921875 -6.99609375 C-31.84022597 -11.12330715 -12.87567818 -9.04409419 0 0 Z " fill="#111111" transform="translate(448.9609375,47.37890625)"/>
<path d="M0 0 C0.67289062 0.52207031 1.34578125 1.04414062 2.0390625 1.58203125 C2.72742188 2.11183594 3.41578125 2.64164063 4.125 3.1875 C4.63289063 3.58582031 5.14078125 3.98414063 5.6640625 4.39453125 C5.18761042 8.68259998 4.00503766 10.66100612 0.6640625 13.39453125 C0.0040625 13.39453125 -0.6559375 13.39453125 -1.3359375 13.39453125 C-1.8309375 14.87953125 -1.8309375 14.87953125 -2.3359375 16.39453125 C-6.345475 15.81968716 -9.05529183 14.56081351 -12.4609375 12.39453125 C-18.53779929 8.55262471 -22.9848918 8.15826099 -30.0234375 8.08203125 C-30.89677734 8.05302734 -31.77011719 8.02402344 -32.66992188 7.99414062 C-38.91006316 7.93355673 -43.01285452 9.20925172 -48.3359375 12.39453125 C-49.1815625 12.78640625 -50.0271875 13.17828125 -50.8984375 13.58203125 C-58.49824661 19.23317136 -62.45997322 27.26851677 -64.3359375 36.39453125 C-65.65386189 47.17415808 -63.76162716 57.48952854 -57.84375 66.72265625 C-55.07766248 70.13368646 -52.18125073 72.24567974 -48.3359375 74.39453125 C-48.3359375 75.05453125 -48.3359375 75.71453125 -48.3359375 76.39453125 C-34.06799524 80.34050903 -22.91249662 79.30984307 -8.3359375 76.39453125 C-8.3359375 68.47453125 -8.3359375 60.55453125 -8.3359375 52.39453125 C-14.6059375 52.39453125 -20.8759375 52.39453125 -27.3359375 52.39453125 C-28.77801691 49.51037242 -28.42988637 46.97731597 -28.3984375 43.76953125 C-28.38941406 42.58101562 -28.38039063 41.3925 -28.37109375 40.16796875 C-28.35949219 39.25273438 -28.34789062 38.3375 -28.3359375 37.39453125 C-24.734447 36.19403442 -21.55910559 36.37254821 -17.82421875 36.515625 C-17.17851929 36.53629028 -16.53281982 36.55695557 -15.86755371 36.57824707 C-13.46097916 36.65687116 -11.05472335 36.74501849 -8.6484375 36.83203125 C-0.57375 37.11046875 -0.57375 37.11046875 7.6640625 37.39453125 C7.6640625 53.56453125 7.6640625 69.73453125 7.6640625 86.39453125 C-0.21187714 90.89506819 -0.21187714 90.89506819 -3.34375 91.625 C-4.02050781 91.78806641 -4.69726562 91.95113281 -5.39453125 92.11914062 C-6.41740234 92.34827148 -6.41740234 92.34827148 -7.4609375 92.58203125 C-8.15058594 92.74638672 -8.84023438 92.91074219 -9.55078125 93.08007812 C-11.47538568 93.53454973 -13.40554036 93.96533022 -15.3359375 94.39453125 C-16.17898438 94.59175781 -17.02203125 94.78898437 -17.890625 94.9921875 C-31.38224895 97.21205534 -46.23256538 94.74996989 -58.3359375 88.39453125 C-59.36136402 87.42062137 -60.36547527 86.42322122 -61.3359375 85.39453125 C-62.0784375 85.00265625 -62.8209375 84.61078125 -63.5859375 84.20703125 C-70.23118489 79.8272091 -73.88916393 73.83456187 -77.2109375 66.76953125 C-77.50919434 66.1362793 -77.80745117 65.50302734 -78.11474609 64.85058594 C-83.5993901 52.616348 -83.11005375 35.63957885 -78.6171875 23.171875 C-76.64150708 18.88922629 -74.17662512 15.14423891 -71.3359375 11.39453125 C-70.6759375 10.40453125 -70.0159375 9.41453125 -69.3359375 8.39453125 C-68.6759375 8.39453125 -68.0159375 8.39453125 -67.3359375 8.39453125 C-67.0059375 7.40453125 -66.6759375 6.41453125 -66.3359375 5.39453125 C-64.2265625 3.67578125 -64.2265625 3.67578125 -61.5859375 1.89453125 C-60.72484375 1.30671875 -59.86375 0.71890625 -58.9765625 0.11328125 C-58.10515625 -0.45390625 -57.23375 -1.02109375 -56.3359375 -1.60546875 C-55.53414063 -2.13785156 -54.73234375 -2.67023437 -53.90625 -3.21875 C-38.62701179 -11.462108 -14.16624715 -9.73633374 0 0 Z " fill="#111111" transform="translate(342.3359375,46.60546875)"/>
<path d="M0 0 C1.0725 0.01417969 2.145 0.02835938 3.25 0.04296875 C4.3225 0.04941406 5.395 0.05585937 6.5 0.0625 C9.25 0.23046875 9.25 0.23046875 11.25 1.23046875 C12.0390625 2.8828125 12.0390625 2.8828125 12.875 5.16796875 C14.82870565 10.27257562 17.01013361 15.24716427 19.25 20.23046875 C22.50891854 27.51266089 25.61286652 34.81414647 28.38671875 42.296875 C30.85969333 48.90447586 33.62655781 55.19030095 36.84375 61.46875 C40.42354184 68.49906342 43.22857335 75.76095261 46.01171875 83.13671875 C47.07253703 85.78709125 48.23133379 88.27174935 49.5625 90.79296875 C51.25 94.23046875 51.25 94.23046875 51.25 98.23046875 C45.31 98.23046875 39.37 98.23046875 33.25 98.23046875 C28.7578125 87 28.7578125 87 27.97753906 85.03759766 C27.35596855 83.49368326 26.70798268 81.96044776 26.0546875 80.4296875 C25.25 78.23046875 25.25 78.23046875 25.25 75.23046875 C10.73 75.56046875 -3.79 75.89046875 -18.75 76.23046875 C-21.19239373 81.92938746 -23.42016619 87.62727379 -25.56640625 93.4375 C-26.75 96.23046875 -26.75 96.23046875 -28.75 98.23046875 C-31.49485593 98.3755457 -34.13480543 98.41699298 -36.875 98.35546875 C-37.62910156 98.34644531 -38.38320313 98.33742188 -39.16015625 98.328125 C-41.02357254 98.30453745 -42.88682593 98.26866594 -44.75 98.23046875 C-45.08 97.24046875 -45.41 96.25046875 -45.75 95.23046875 C-44.78018744 93.54605746 -43.77062519 91.88458543 -42.75 90.23046875 C-42.16196687 88.84519839 -41.60305495 87.44744634 -41.0625 86.04296875 C-39.13162898 81.07468908 -36.99230545 76.2179177 -34.8125 71.35546875 C-32.1322775 65.36882074 -29.52843476 59.36267176 -27.03125 53.296875 C-24.60670236 47.49422287 -22.06009634 41.74428958 -19.52392578 35.98974609 C-18.87545565 34.51565279 -18.23204081 33.039337 -17.58984375 31.5625 C-15.94478572 27.79951302 -14.19582795 24.13050991 -12.3125 20.48046875 C-9.7445922 15.43976084 -7.78747351 10.23300146 -5.86328125 4.91796875 C-4.4294563 1.45666502 -3.81688373 0.31988088 0 0 Z M2.25 22.23046875 C-6.31378976 41.50783003 -6.31378976 41.50783003 -13.75 61.23046875 C-3.19 61.23046875 7.37 61.23046875 18.25 61.23046875 C17.47220458 56.56369626 16.89209604 54.02279121 14.9375 49.98046875 C12.90140926 45.65742221 11.04393802 41.31360609 9.296875 36.8671875 C7.34879072 31.96063194 5.29106693 27.09891529 3.25 22.23046875 C2.92 22.23046875 2.59 22.23046875 2.25 22.23046875 Z " fill="#101011" transform="translate(776.75,40.76953125)"/>
<path d="M0 0 C1.17691406 0.00257812 2.35382812 0.00515625 3.56640625 0.0078125 C5.32791016 0.00394531 5.32791016 0.00394531 7.125 0 C10.12890625 0.1328125 10.12890625 0.1328125 12.12890625 1.1328125 C12.12890625 28.5228125 12.12890625 55.9128125 12.12890625 84.1328125 C26.31890625 84.1328125 40.50890625 84.1328125 55.12890625 84.1328125 C55.12890625 88.7528125 55.12890625 93.3728125 55.12890625 98.1328125 C35.65890625 98.1328125 16.18890625 98.1328125 -3.87109375 98.1328125 C-3.91120256 73.96502661 -3.91120256 73.96502661 -3.91992188 63.70117188 C-3.9259108 56.68448129 -3.93301241 49.66780369 -3.9465332 42.65112305 C-3.95736045 36.99719538 -3.96337024 31.34328163 -3.96597099 25.68934441 C-3.96782554 23.5270764 -3.9714467 21.36480919 -3.97682381 19.20254707 C-3.98403208 16.18522593 -3.98508478 13.16796307 -3.98461914 10.15063477 C-3.98821442 9.2472084 -3.99180969 8.34378204 -3.99551392 7.41297913 C-3.9833592 0.18426424 -3.9833592 0.18426424 0 0 Z " fill="#101010" transform="translate(841.87109375,40.8671875)"/>
<path d="M0 0 C1.76537109 -0.00386719 1.76537109 -0.00386719 3.56640625 -0.0078125 C6.4375 0.125 6.4375 0.125 7.4375 1.125 C7.53257821 3.71139038 7.56306376 6.2709856 7.55102539 8.85766602 C7.55117142 9.6673584 7.55131744 10.47705078 7.5514679 11.3112793 C7.55076854 14.00051508 7.5429751 16.68968249 7.53515625 19.37890625 C7.53329215 21.23835716 7.53186821 23.09780856 7.53086853 24.95726013 C7.52704271 29.86129096 7.51721188 34.76529236 7.50616455 39.66931152 C7.49415753 45.54799542 7.4895485 51.42668913 7.48371124 57.30538177 C7.47400016 66.24527501 7.45484405 75.18510363 7.4375 84.125 C21.6275 84.125 35.8175 84.125 50.4375 84.125 C50.4375 88.745 50.4375 93.365 50.4375 98.125 C30.9675 98.125 11.4975 98.125 -8.5625 98.125 C-8.5625 66.115 -8.5625 34.105 -8.5625 1.125 C-5.69616205 -0.30816898 -3.19014499 -0.00700361 0 0 Z " fill="#111111" transform="translate(484.5625,40.875)"/>
<path d="M0 0 C5.28876124 5.02326117 7.64332897 11.34464728 8.2578125 18.47265625 C8.1318129 24.6237276 6.18145713 30.25741496 2.14453125 34.93359375 C-4.09010109 40.67187672 -10.11062665 43.42079161 -18.6328125 43.13671875 C-24.47872564 42.43898073 -29.49033722 39.43393147 -34.0546875 35.84765625 C-34.9296875 33.59765625 -34.9296875 33.59765625 -35.0546875 31.84765625 C-35.7146875 31.84765625 -36.3746875 31.84765625 -37.0546875 31.84765625 C-40.44835623 25.62593024 -41.08141962 19.86365906 -40.0546875 12.84765625 C-38.04148955 6.47252942 -35.5285392 1.1743188 -29.6171875 -2.27734375 C-28.11454951 -2.94490505 -26.59391208 -3.57411653 -25.0546875 -4.15234375 C-23.3840625 -4.86390625 -23.3840625 -4.86390625 -21.6796875 -5.58984375 C-13.65465465 -6.83510747 -6.52336276 -4.75808 0 0 Z " fill="#101011" transform="translate(110.0546875,80.15234375)"/>
<path d="M0 0 C1.60875 -0.00386719 1.60875 -0.00386719 3.25 -0.0078125 C6 0.125 6 0.125 8 1.125 C8 33.135 8 65.145 8 98.125 C2.72 98.125 -2.56 98.125 -8 98.125 C-8 66.115 -8 34.105 -8 1.125 C-5.26922124 -0.24038938 -3.04439633 -0.00731826 0 0 Z " fill="#0F0F0F" transform="translate(237,40.875)"/>
<path d="M0 0 C1.17691406 0.00257812 2.35382812 0.00515625 3.56640625 0.0078125 C5.32791016 0.00394531 5.32791016 0.00394531 7.125 0 C10.12890625 0.1328125 10.12890625 0.1328125 12.12890625 1.1328125 C12.45890625 28.8528125 12.78890625 56.5728125 13.12890625 85.1328125 C11.64390625 85.6278125 11.64390625 85.6278125 10.12890625 86.1328125 C10.12890625 58.7428125 10.12890625 31.3528125 10.12890625 3.1328125 C6.16890625 3.1328125 2.20890625 3.1328125 -1.87109375 3.1328125 C-1.87109375 33.8228125 -1.87109375 64.5128125 -1.87109375 96.1328125 C16.27890625 96.1328125 34.42890625 96.1328125 53.12890625 96.1328125 C53.45890625 92.8328125 53.78890625 89.5328125 54.12890625 86.1328125 C52.47890625 86.1328125 50.82890625 86.1328125 49.12890625 86.1328125 C48.79890625 85.4728125 48.46890625 84.8128125 48.12890625 84.1328125 C50.43890625 84.1328125 52.74890625 84.1328125 55.12890625 84.1328125 C55.12890625 88.7528125 55.12890625 93.3728125 55.12890625 98.1328125 C35.65890625 98.1328125 16.18890625 98.1328125 -3.87109375 98.1328125 C-3.91120256 73.96502661 -3.91120256 73.96502661 -3.91992188 63.70117188 C-3.9259108 56.68448129 -3.93301241 49.66780369 -3.9465332 42.65112305 C-3.95736045 36.99719538 -3.96337024 31.34328163 -3.96597099 25.68934441 C-3.96782554 23.5270764 -3.9714467 21.36480919 -3.97682381 19.20254707 C-3.98403208 16.18522593 -3.98508478 13.16796307 -3.98461914 10.15063477 C-3.98821442 9.2472084 -3.99180969 8.34378204 -3.99551392 7.41297913 C-3.9833592 0.18426424 -3.9833592 0.18426424 0 0 Z " fill="#19191D" transform="translate(841.87109375,40.8671875)"/>
<path d="M0 0 C1.60875 -0.00386719 1.60875 -0.00386719 3.25 -0.0078125 C6 0.125 6 0.125 8 1.125 C8 33.135 8 65.145 8 98.125 C2.72 98.125 -2.56 98.125 -8 98.125 C-8 66.115 -8 34.105 -8 1.125 C-5.26922124 -0.24038938 -3.04439633 -0.00731826 0 0 Z M-6 3.125 C-6 34.145 -6 65.165 -6 97.125 C-0.06 96.63 -0.06 96.63 6 96.125 C6 65.435 6 34.745 6 3.125 C2.04 3.125 -1.92 3.125 -6 3.125 Z " fill="#1B1B1F" transform="translate(237,40.875)"/>
<path d="M0 0 C1.76537109 -0.00386719 1.76537109 -0.00386719 3.56640625 -0.0078125 C6.4375 0.125 6.4375 0.125 7.4375 1.125 C7.50955511 2.81108966 7.52136068 4.50000659 7.5 6.1875 C7.49097656 7.10660156 7.48195313 8.02570312 7.47265625 8.97265625 C7.46105469 9.68292969 7.44945312 10.39320312 7.4375 11.125 C6.7775 10.465 6.1175 9.805 5.4375 9.125 C5.4375 7.145 5.4375 5.165 5.4375 3.125 C1.4775 3.125 -2.4825 3.125 -6.5625 3.125 C-6.5625 33.815 -6.5625 64.505 -6.5625 96.125 C11.5875 96.125 29.7375 96.125 48.4375 96.125 C48.7675 92.825 49.0975 89.525 49.4375 86.125 C47.4575 86.125 45.4775 86.125 43.4375 86.125 C43.4375 85.465 43.4375 84.805 43.4375 84.125 C45.7475 84.125 48.0575 84.125 50.4375 84.125 C50.4375 88.745 50.4375 93.365 50.4375 98.125 C30.9675 98.125 11.4975 98.125 -8.5625 98.125 C-8.5625 66.115 -8.5625 34.105 -8.5625 1.125 C-5.69616205 -0.30816898 -3.19014499 -0.00700361 0 0 Z " fill="#1B1A1E" transform="translate(484.5625,40.875)"/>
<path d="M0 0 C0.84288574 -0.0033284 1.68577148 -0.0066568 2.55419922 -0.01008606 C4.34651137 -0.01516282 6.13883301 -0.01749416 7.93115234 -0.01733398 C10.6482762 -0.01949998 13.36498044 -0.0375901 16.08203125 -0.05664062 C17.82551945 -0.05957866 19.56900958 -0.06156071 21.3125 -0.0625 C22.11598877 -0.06968552 22.91947754 -0.07687103 23.74731445 -0.08427429 C32.40631229 -0.04998357 39.36483463 1.49392703 46.6875 6.16796875 C46.6875 6.82796875 46.6875 7.48796875 46.6875 8.16796875 C44.51875748 7.66192883 42.68782373 7.16813062 40.6875 6.16796875 C40.6875 5.50796875 40.6875 4.84796875 40.6875 4.16796875 C24.8475 3.83796875 9.0075 3.50796875 -7.3125 3.16796875 C-7.3125 33.85796875 -7.3125 64.54796875 -7.3125 96.16796875 C-5.9925 96.49796875 -4.6725 96.82796875 -3.3125 97.16796875 C-4.96864657 97.55015642 -6.63707024 97.88191977 -8.3125 98.16796875 C-10.21001904 96.27044971 -9.43921315 93.48739104 -9.44802856 90.96237183 C-9.44600433 90.06986725 -9.4439801 89.17736267 -9.44189453 88.2578125 C-9.44364685 87.32292999 -9.44539917 86.38804749 -9.44720459 85.42483521 C-9.45162474 82.31836113 -9.44868454 79.21194346 -9.4453125 76.10546875 C-9.44598549 73.95694976 -9.44695548 71.80843084 -9.44821167 69.65991211 C-9.44968886 65.15054603 -9.44753339 60.64119972 -9.44287109 56.13183594 C-9.4371738 50.33748298 -9.44045269 44.54317633 -9.44644356 38.74882507 C-9.45004859 34.31033984 -9.44891085 29.87186568 -9.44631577 25.43338013 C-9.44564634 23.29623408 -9.44647547 21.15908704 -9.44879532 19.02194214 C-9.4513209 16.04064249 -9.44748259 13.05941895 -9.44189453 10.078125 C-9.44391876 9.18562042 -9.44594299 8.29311584 -9.44802856 7.37356567 C-9.41906908 -0.9213618 -7.57514509 0.01028422 0 0 Z " fill="#17161E" transform="translate(667.3125,40.83203125)"/>
<path d="M0 0 C2.63876797 3.35843197 3 5.37058229 3 9.625 C1.78683763 13.71942301 0.71158357 14.93800913 -3 17 C-6 17.5625 -6 17.5625 -9 17 C-11.8125 14.5625 -11.8125 14.5625 -14 12 C-14.33 11.67 -14.66 11.34 -15 11 C-15.41835221 6.3981257 -14.91160209 3.63950262 -12 0 C-8.49017247 -1.81991057 -3.66436427 -1.24992086 0 0 Z " fill="#101010" transform="translate(53,151)"/>
<path d="M0 0 C2.86473938 1.99286218 4.67590353 3.45595549 5.4140625 6.97265625 C5.54100828 10.05974685 5.27627803 12.48379632 3.8125 15.21875 C2 17 2 17 -0.59375 17.49609375 C-1.5528125 17.47675781 -2.511875 17.45742188 -3.5 17.4375 C-4.4590625 17.43621094 -5.418125 17.43492188 -6.40625 17.43359375 C-9.36006953 16.93980765 -10.25477673 16.38909204 -12 14 C-12.91721105 10.75448398 -13.14052365 8.6042517 -12.375 5.3125 C-9.51793338 0.50743341 -5.4081868 -0.90136447 0 0 Z " fill="#100F10" transform="translate(54,11)"/>
<path d="M0 0 C2.83948603 3.16399872 3.11234951 5.22907236 3.1875 9.4375 C2.36079884 12.41362417 1.35317053 13.30404318 -1.0625 15.25 C-4.5249474 16.74514774 -6.22608826 16.50579286 -9.8125 15.4375 C-12.125 14.25 -12.125 14.25 -13.8125 12.4375 C-15.22444705 7.89909878 -14.85410392 4.7151463 -12.8125 0.4375 C-8.8096904 -2.70756468 -4.29701338 -2.38722966 0 0 Z " fill="#0F0F0F" transform="translate(28.8125,85.5625)"/>
<path d="M0 0 C2.67371085 2.60144839 4.8802811 5.16899512 5 9 C3.58377547 12.49890767 2.48992226 13.74438838 -0.875 15.5 C-4 16 -4 16 -6.75 14.8125 C-9 13 -9 13 -11 10 C-10.78206897 3.89793103 -10.78206897 3.89793103 -8.3125 1.0625 C-5.23180105 -0.35295627 -3.35279749 -0.55879958 0 0 Z " fill="#101011" transform="translate(166,100)"/>
<path d="M0 0 C-0.33 0.66 -0.66 1.32 -1 2 C-1.92941406 1.51789062 -2.85882813 1.03578125 -3.81640625 0.5390625 C-5.06493755 -0.09928433 -6.31364495 -0.73728678 -7.5625 -1.375 C-8.17158203 -1.69210938 -8.78066406 -2.00921875 -9.40820312 -2.3359375 C-22.35967099 -8.91446086 -36.01380968 -8.79723806 -50 -6 C-51.48306641 -5.74669922 -51.48306641 -5.74669922 -52.99609375 -5.48828125 C-56.53280134 -4.88834497 -56.53280134 -4.88834497 -60 -4 C-60.33 -3.34 -60.66 -2.68 -61 -2 C-61.66 -2 -62.32 -2 -63 -2 C-63 -2.66 -63 -3.32 -63 -4 C-44.47574836 -16.79055471 -17.18296948 -12.71539741 0 0 Z " fill="#232128" transform="translate(347,50)"/>
<path d="M0 0 C0.33 0.66 0.66 1.32 1 2 C0.4225 2.969375 -0.155 3.93875 -0.75 4.9375 C-8.59242627 18.28051691 -7.20510655 35.40531838 -4 50 C-7.72078428 47.29397507 -8.3186127 43.29982053 -9 39 C-9.2818152 35.74377211 -9.33382607 32.51727941 -9.3125 29.25 C-9.30621582 27.93491455 -9.30621582 27.93491455 -9.29980469 26.59326172 C-9.13914406 17.32451106 -8.13188077 8.31869641 -2 1 C-1.34 0.67 -0.68 0.34 0 0 Z " fill="#1F1D21" transform="translate(375,61)"/>
<path d="M0 0 C7.59 0 15.18 0 23 0 C23 0.33 23 0.66 23 1 C16.07 1 9.14 1 2 1 C2 10.9 2 20.8 2 31 C3.32 31 4.64 31 6 31 C6 31.66 6 32.32 6 33 C4.02 33 2.04 33 0 33 C0 22.11 0 11.22 0 0 Z " fill="#1E1E24" transform="translate(672,94)"/>
<path d="M0 0 C0.66 0.33 1.32 0.66 2 1 C0.08155232 5.26935119 -1.8391043 9.53769939 -3.76171875 13.80517578 C-4.41400362 15.25380252 -5.06570849 16.70269057 -5.71679688 18.15185547 C-12.37596466 32.97156783 -12.37596466 32.97156783 -16 40 C-17.07550302 36.79173487 -16.98963758 35.21385306 -15.55859375 32.1640625 C-15.22496826 31.43590332 -14.89134277 30.70774414 -14.54760742 29.95751953 C-14.18127197 29.18778809 -13.81493652 28.41805664 -13.4375 27.625 C-12.69168242 26.0108903 -11.94690262 24.39630072 -11.203125 22.78125 C-10.82994141 21.97816406 -10.45675781 21.17507812 -10.07226562 20.34765625 C-8.03618963 15.88979951 -6.19294137 11.35022465 -4.32421875 6.8203125 C-3.11140803 4.23727609 -1.80772243 2.19471287 0 0 Z " fill="#1A191D" transform="translate(761,71)"/>
<path d="M0 0 C2 2 2 2 2.22705078 4.33837891 C2.21657715 5.29147949 2.20610352 6.24458008 2.1953125 7.2265625 C2.18886719 8.2578125 2.18242188 9.2890625 2.17578125 10.3515625 C2.15902344 11.43179688 2.14226563 12.51203125 2.125 13.625 C2.11597656 14.71296875 2.10695313 15.8009375 2.09765625 16.921875 C2.07403518 19.61467649 2.03816333 22.30736535 2 25 C7.61 25 13.22 25 19 25 C19 25.66 19 26.32 19 27 C12.73 27 6.46 27 0 27 C0 18.09 0 9.18 0 0 Z " fill="#1C1C23" transform="translate(672,56)"/>
<path d="M0 0 C-0.66 0.66 -1.32 1.32 -2 2 C-2.62261719 1.67773438 -3.24523437 1.35546875 -3.88671875 1.0234375 C-8.22214556 -0.40175927 -12.27703045 -0.36832528 -16.8125 -0.375 C-17.67681641 -0.39949219 -18.54113281 -0.42398438 -19.43164062 -0.44921875 C-25.62980876 -0.47728593 -29.71115284 0.86334636 -35 4 C-36.32890229 4.67545609 -37.66114914 5.34448447 -39 6 C-39 5.01 -39 4.02 -39 3 C-26.33743927 -4.59753644 -13.67020475 -5.93235301 0 0 Z " fill="#060706" transform="translate(329,55)"/>
<path d="M0 0 C0.495 0.99 0.495 0.99 1 2 C0.40687012 1.96447021 -0.18625977 1.92894043 -0.79736328 1.89233398 C-12.30090429 1.22554271 -23.51946478 0.72656179 -35 2 C-34.67 1.34 -34.34 0.68 -34 0 C-23.61023515 -3.22440978 -10.36245761 -3.73048474 0 0 Z " fill="#23212B" transform="translate(434,41)"/>
<path d="M0 0 C6.33513627 -0.15211778 12.66980202 -0.25719976 19.00634766 -0.32958984 C21.16180011 -0.35976553 23.31712976 -0.40071202 25.47216797 -0.45263672 C28.57029493 -0.5254163 31.66679932 -0.55944832 34.765625 -0.5859375 C35.72929993 -0.61690521 36.69297485 -0.64787292 37.68585205 -0.67977905 C40.26098362 -0.68107483 42.50088355 -0.62184893 45 0 C47.70214844 2.84912109 47.70214844 2.84912109 49 6 C48.67 6.99 48.34 7.98 48 9 C46.5 7.6875 46.5 7.6875 45 6 C45 5.01 45 4.02 45 3 C43.9275 3.020625 42.855 3.04125 41.75 3.0625 C38 3 38 3 36.20727539 2.49780273 C33.0888109 1.79450121 30.12742045 1.92706812 26.93359375 1.97265625 C25.54752848 1.98529621 24.16146064 1.99765763 22.77539062 2.00976562 C20.60058526 2.03462758 18.42591431 2.06267725 16.2512207 2.09594727 C14.14533628 2.12612979 12.03962526 2.14391137 9.93359375 2.16015625 C8.67603271 2.17699463 7.41847168 2.19383301 6.12280273 2.21118164 C3 2 3 2 0 0 Z " fill="#020402" transform="translate(757,113)"/>
<path d="M0 0 C4.49762306 -0.06331792 7.36008109 0.35548125 11.31359863 2.55187988 C12.16953613 3.01594238 13.02547363 3.48000488 13.90734863 3.95812988 C14.53641113 4.31906738 15.16547363 4.68000488 15.81359863 5.05187988 C15.81359863 5.71187988 15.81359863 6.37187988 15.81359863 7.05187988 C13.64485612 6.54583996 11.81392237 6.05204175 9.81359863 5.05187988 C9.81359863 4.39187988 9.81359863 3.73187988 9.81359863 3.05187988 C-5.36640137 2.72187988 -20.54640137 2.39187988 -36.18640137 2.05187988 C-36.18640137 1.72187988 -36.18640137 1.39187988 -36.18640137 1.05187988 C-31.49080903 0.90791847 -26.79517166 0.76556184 -22.0994873 0.62463379 C-20.5050732 0.57656262 -18.9106718 0.52806783 -17.31628418 0.47912598 C-15.01260613 0.40848754 -12.70888531 0.33941856 -10.40515137 0.27062988 C-9.70273315 0.2487561 -9.00031494 0.22688232 -8.27661133 0.2043457 C-5.5179929 0.12313778 -2.75901771 0.06546717 0 0 Z " fill="#1C1B20" transform="translate(698.1864013671875,41.9481201171875)"/>
<path d="M0 0 C0.33 0.66 0.66 1.32 1 2 C1.66 2 2.32 2 3 2 C6.56684471 9.58548974 9.97248155 17.18349781 13 25 C13.66505137 26.66731188 14.33131117 28.33414362 15 30 C14.34 30.66 13.68 31.32 13 32 C11.14143093 27.92810634 9.29023333 23.85296785 7.44580078 19.7746582 C6.81728553 18.38767399 6.18676333 17.00159741 5.55419922 15.61645508 C4.64542216 13.62556279 3.74390755 11.63152028 2.84375 9.63671875 C2.02680664 7.83787231 2.02680664 7.83787231 1.19335938 6.00268555 C0 3 0 3 0 0 Z " fill="#1F1D22" transform="translate(812,104)"/>
<path d="M0 0 C0.33 0 0.66 0 1 0 C1.34837335 4.87722688 0.45094389 7.78437652 -2 12 C-3 13 -3 13 -6.59765625 13.09765625 C-8.08596867 13.0909822 -9.57426432 13.07902183 -11.0625 13.0625 C-12.20041992 13.05573242 -12.20041992 13.05573242 -13.36132812 13.04882812 C-15.24091871 13.0370068 -17.12046899 13.01907078 -19 13 C-19.33 12.01 -19.66 11.02 -20 10 C-19.67 9.34 -19.34 8.68 -19 8 C-18.34 8 -17.68 8 -17 8 C-17 8.66 -17 9.32 -17 10 C-12.71 10.33 -8.42 10.66 -4 11 C-3.525625 9.55625 -3.05125 8.1125 -2.5625 6.625 C-1.80602983 4.32269949 -1.08391186 2.16782371 0 0 Z " fill="#1C1B1F" transform="translate(751,126)"/>
<path d="M0 0 C0.33 0.66 0.66 1.32 1 2 C0.38253906 1.9278125 -0.23492188 1.855625 -0.87109375 1.78125 C-10.42939455 0.73376498 -19.4418091 0.99951647 -29 2 C-29 1.34 -29 0.68 -29 0 C-19.65072659 -2.57910991 -9.14966589 -3.8496372 0 0 Z " fill="#24232B" transform="translate(604,41)"/>
<path d="M0 0 C10.47008683 0.43716438 17.74914342 3.68019496 26 10 C25.67 10.66 25.34 11.32 25 12 C24.10539062 11.52949219 23.21078125 11.05898438 22.2890625 10.57421875 C15.89861444 7.26692045 9.8313202 4.31625891 2.79296875 2.60546875 C1 2 1 2 0 0 Z " fill="#1A191E" transform="translate(321,40)"/>
<path d="M0 0 C1.95825873 -0.02694851 3.91662226 -0.04637218 5.875 -0.0625 C6.96554687 -0.07410156 8.05609375 -0.08570313 9.1796875 -0.09765625 C12 0 12 0 14 1 C14.78015621 2.82510997 15.47795406 4.68606676 16.125 6.5625 C16.47820313 7.57441406 16.83140625 8.58632813 17.1953125 9.62890625 C17.46085938 10.41136719 17.72640625 11.19382812 18 12 C17.01 12.495 17.01 12.495 16 13 C15.32845067 11.71086513 14.66291141 10.41859796 14 9.125 C13.62875 8.40570313 13.2575 7.68640625 12.875 6.9453125 C12 5 12 5 12 3 C5.565 3.495 5.565 3.495 -1 4 C-0.67 2.68 -0.34 1.36 0 0 Z " fill="#171619" transform="translate(774,41)"/>
<path d="M0 0 C3.83307169 -0.11719175 7.66567608 -0.18758077 11.5 -0.25 C12.57765625 -0.28351562 13.6553125 -0.31703125 14.765625 -0.3515625 C21.13145579 -0.42919458 26.91191185 -0.2466728 32 4 C33.20898438 6.13964844 33.20898438 6.13964844 34 8 C32.35 7.34 30.7 6.68 29 6 C29 5.34 29 4.68 29 4 C25.71550999 3.06206509 22.54281038 2.72521508 19.140625 2.46484375 C17.46806641 2.33432617 17.46806641 2.33432617 15.76171875 2.20117188 C14.60285156 2.11416016 13.44398438 2.02714844 12.25 1.9375 C11.07566406 1.84662109 9.90132812 1.75574219 8.69140625 1.66210938 C5.79449052 1.43836385 2.89736944 1.21777821 0 1 C0 0.67 0 0.34 0 0 Z " fill="#060606" transform="translate(673,53)"/>
<path d="M0 0 C9.9 0 19.8 0 30 0 C23.3407278 4.4395148 13.71983176 3.52292775 6 3 C2.56640625 1.98828125 2.56640625 1.98828125 0 1 C0 0.67 0 0.34 0 0 Z " fill="#23212A" transform="translate(404,126)"/>
<path d="M0 0 C0.33 0 0.66 0 1 0 C0.98839844 0.83660156 0.97679687 1.67320313 0.96484375 2.53515625 C0.89600798 11.41497008 1.30582756 20.14930134 2 29 C-2.03801822 24.96198178 -2.13110614 18.43209505 -2.25 12.9375 C-2.16414114 8.36551546 -1.29644832 4.37551308 0 0 Z " fill="#1E1D21" transform="translate(556,77)"/>
<path d="M0 0 C1.14597656 0.08378906 2.29195312 0.16757813 3.47265625 0.25390625 C5.00257846 0.35715253 6.5325279 0.45999567 8.0625 0.5625 C8.81466797 0.61857422 9.56683594 0.67464844 10.34179688 0.73242188 C15.07859502 1.04000617 19.32542212 0.83807173 24 0 C24.33 0.66 24.66 1.32 25 2 C16.74514296 5.66882535 7.40845232 4.5872161 -1 2 C-0.67 1.34 -0.34 0.68 0 0 Z " fill="#1E1D26" transform="translate(579,125)"/>
<path d="M0 0 C6.36939251 -0.10273214 12.69502258 -0.01329994 19 1 C20 2 20 2 20.09765625 3.84765625 C20.06510417 5.8984375 20.03255208 7.94921875 20 10 C18 6.25 18 6.25 18 4 C12.06 3.67 6.12 3.34 0 3 C0 2.01 0 1.02 0 0 Z " fill="#1D1B21" transform="translate(38,95)"/>
<path d="M0 0 C-0.99 0.66 -1.98 1.32 -3 2 C-4.010625 1.360625 -5.02125 0.72125 -6.0625 0.0625 C-11.38515779 -2.66584077 -16.86018464 -2.57408706 -22.70703125 -2.7265625 C-26 -3 -26 -3 -29 -5 C-19.03385455 -7.10211566 -8.85866933 -4.82774043 0 0 Z " fill="#050605" transform="translate(438,57)"/>
<path d="M0 0 C0.66 0 1.32 0 2 0 C3.19094628 3.76339024 3.16776608 7.38544958 3.1875 11.3125 C3.20167969 12.58738281 3.21585938 13.86226562 3.23046875 15.17578125 C2.99001075 19.16575384 2.2354171 22.22538569 1 26 C0.67 26 0.34 26 0 26 C0 17.42 0 8.84 0 0 Z " fill="#201F25" transform="translate(625,79)"/>
<path d="M0 0 C4.62 0 9.24 0 14 0 C14 0.66 14 1.32 14 2 C15.65 2 17.3 2 19 2 C19 2.33 19 2.66 19 3 C11.08 3 3.16 3 -5 3 C-5 2.67 -5 2.34 -5 2 C-3.35 2 -1.7 2 0 2 C0 1.34 0 0.68 0 0 Z " fill="#050509" transform="translate(678,125)"/>
<path d="M0 0 C5.94 0 11.88 0 18 0 C18 0.99 18 1.98 18 3 C5.33029613 4.51708428 5.33029613 4.51708428 0 2 C0 1.34 0 0.68 0 0 Z " fill="#17171C" transform="translate(84,133)"/>
<path d="M0 0 C0 0.66 0 1.32 0 2 C-0.50789063 2.24234375 -1.01578125 2.4846875 -1.5390625 2.734375 C-7.17434401 5.47814502 -12.74657974 8.27397749 -17 13 C-17 9 -17 9 -15.20703125 7.1484375 C-14.41683594 6.56320313 -13.62664062 5.97796875 -12.8125 5.375 C-12.03519531 4.78460938 -11.25789063 4.19421875 -10.45703125 3.5859375 C-6.95428805 1.32502536 -4.19553218 0 0 0 Z " fill="#080808" transform="translate(407,53)"/>
<path d="M0 0 C0.99 0 1.98 0 3 0 C5.66666667 5.33333333 8.33333333 10.66666667 11 16 C10.34 16.66 9.68 17.32 9 18 C8.68546875 17.43152344 8.3709375 16.86304687 8.046875 16.27734375 C7.40492187 15.11912109 7.40492187 15.11912109 6.75 13.9375 C6.29753906 13.12023438 5.84507813 12.30296875 5.37890625 11.4609375 C4.17445156 9.31134414 2.93731348 7.18583904 1.6875 5.0625 C0 2 0 2 0 0 Z " fill="#080808" transform="translate(57,39)"/>
<path d="M0 0 C4.95 0 9.9 0 15 0 C15.33 0.99 15.66 1.98 16 3 C11.05 3 6.1 3 1 3 C0.67 2.01 0.34 1.02 0 0 Z " fill="#040504" transform="translate(306,139)"/>
<path d="M0 0 C0.33 0 0.66 0 1 0 C1.04898437 1.22976562 1.09796875 2.45953125 1.1484375 3.7265625 C1.22351029 5.35939566 1.29905615 6.99220712 1.375 8.625 C1.4059375 9.43324219 1.436875 10.24148437 1.46875 11.07421875 C1.69647772 15.74263692 2.3381085 19.58560071 4 24 C4.37531446 26.32694964 4.71917202 28.65976685 5 31 C1.28698544 28.29962577 0.71754558 24.28585653 0 20 C-0.22015232 16.49382034 -0.19134539 13.01120209 -0.125 9.5 C-0.11597656 8.5821875 -0.10695313 7.664375 -0.09765625 6.71875 C-0.07432432 4.47888444 -0.04159235 2.23958817 0 0 Z " fill="#19181A" transform="translate(366,80)"/>
<path d="M0 0 C0.66 0.99 1.32 1.98 2 3 C0.59921602 4.53547475 -0.82120903 6.05305148 -2.25 7.5625 C-3.43335938 8.83287109 -3.43335938 8.83287109 -4.640625 10.12890625 C-5.41921875 10.74636719 -6.1978125 11.36382812 -7 12 C-8.32 11.67 -9.64 11.34 -11 11 C-7.37 7.37 -3.74 3.74 0 0 Z " fill="#070807" transform="translate(66,134)"/>
<path d="M0 0 C2.375 2 2.375 2 4 4 C3.67 4.99 3.34 5.98 3 7 C2.67 6.34 2.34 5.68 2 5 C-0.64924585 3.13571588 -1.90289998 2.99238431 -5.1875 3.25 C-6.115625 3.4975 -7.04375 3.745 -8 4 C-8.33 4.66 -8.66 5.32 -9 6 C-9.66 6 -10.32 6 -11 6 C-10.75 4.125 -10.75 4.125 -10 2 C-6.84015718 -0.34062431 -3.83352545 -0.47919068 0 0 Z " fill="#1B1A20" transform="translate(54,11)"/>
<path d="M0 0 C4.95 0 9.9 0 15 0 C14.01 0.495 14.01 0.495 13 1 C13 1.66 13 2.32 13 3 C8.71 3 4.42 3 0 3 C0 2.01 0 1.02 0 0 Z " fill="#050607" transform="translate(411,139)"/>
<path d="M0 0 C6.37173005 0.34134268 11.06713249 1.78869556 16 6 C16 6.66 16 7.32 16 8 C13.83125748 7.49396008 12.00032373 7.00016187 10 6 C10 5.34 10 4.68 10 4 C7.98177083 3.83723958 5.96354167 3.67447917 3.9453125 3.51171875 C2 3 2 3 0 0 Z " fill="#1A191D" transform="translate(604,41)"/>
<path d="M0 0 C2.27868586 1.13934293 4.4543689 2.28127598 6.625 3.625 C11.15590067 5.47092249 15.17260298 5.25758838 20 5 C17.50494038 7.49505962 16.32671112 7.35948376 12.875 7.625 C11.96492188 7.69976562 11.05484375 7.77453125 10.1171875 7.8515625 C9.06917969 7.92503906 9.06917969 7.92503906 8 8 C8 7.34 8 6.68 8 6 C7.236875 5.896875 6.47375 5.79375 5.6875 5.6875 C2.81583516 4.95288806 1.76957906 4.3283935 0 2 C0 1.34 0 0.68 0 0 Z " fill="#19181D" transform="translate(34,167)"/>
<path d="M0 0 C4.62 0 9.24 0 14 0 C14 0.99 14 1.98 14 3 C9.38 3 4.76 3 0 3 C0 2.01 0 1.02 0 0 Z " fill="#030405" transform="translate(585,139)"/>
<path d="M0 0 C1.66565749 0.15222973 3.33656496 0.24917215 5.0078125 0.31640625 C5.99394531 0.35830078 6.98007812 0.40019531 7.99609375 0.44335938 C9.54490234 0.50233398 9.54490234 0.50233398 11.125 0.5625 C12.68541016 0.62727539 12.68541016 0.62727539 14.27734375 0.69335938 C16.85142528 0.7996288 19.42560508 0.90166583 22 1 C22 1.33 22 1.66 22 2 C12.1 2 2.2 2 -8 2 C-7.67 1.34 -7.34 0.68 -7 0 C-2.52459016 -1.26229508 -2.52459016 -1.26229508 0 0 Z " fill="#0A0B0A" transform="translate(770,103)"/>
<path d="M0 0 C1.19882812 0.15275391 1.19882812 0.15275391 2.421875 0.30859375 C3.02515625 0.39238281 3.6284375 0.47617187 4.25 0.5625 C4.25 0.8925 4.25 1.2225 4.25 1.5625 C3.54875 1.59988281 2.8475 1.63726562 2.125 1.67578125 C-2.62220984 2.00473193 -6.87380499 2.39730809 -11.3125 4.1875 C-13.0140625 4.868125 -13.0140625 4.868125 -14.75 5.5625 C-15.41 5.2325 -16.07 4.9025 -16.75 4.5625 C-15.50264433 3.9115741 -14.25198168 3.26698331 -13 2.625 C-12.30390625 2.26535156 -11.6078125 1.90570313 -10.890625 1.53515625 C-7.02420722 -0.22166497 -4.21084068 -0.55731715 0 0 Z " fill="#080908" transform="translate(587.75,52.4375)"/>
<path d="M0 0 C3.47196006 2.68287823 4.0949599 5.82289183 5 10 C5.07403678 12.33215844 5.09515886 14.66860788 5 17 C4.34 17 3.68 17 3 17 C2.87882812 16.34773438 2.75765625 15.69546875 2.6328125 15.0234375 C1.71056011 10.21353658 0.69832723 5.60974535 -1 1 C-0.67 0.67 -0.34 0.34 0 0 Z " fill="#171618" transform="translate(113,85)"/>
<path d="M0 0 C0 0.66 0 1.32 0 2 C-1.62395997 2.50336767 -3.24920541 3.00258976 -4.875 3.5 C-5.77992188 3.7784375 -6.68484375 4.056875 -7.6171875 4.34375 C-10 5 -10 5 -12 5 C-12.33 5.66 -12.66 6.32 -13 7 C-13.66 7 -14.32 7 -15 7 C-15 6.34 -15 5.68 -15 5 C-9.66510309 1.81958069 -6.29701485 0 0 0 Z " fill="#1B191E" transform="translate(299,41)"/>
<path d="M0 0 C0 0.99 0 1.98 0 3 C-2.08304538 3.05418326 -4.16649768 3.09287551 -6.25 3.125 C-7.99023438 3.15980469 -7.99023438 3.15980469 -9.765625 3.1953125 C-12.82786046 3.0103949 -14.44202751 2.60823023 -17 1 C-14.72926348 0.83201949 -12.45840707 0.66565887 -10.1875 0.5 C-8.29064453 0.36078125 -8.29064453 0.36078125 -6.35546875 0.21875 C-4.24021483 0.08085219 -2.11974408 0 0 0 Z " fill="#22212B" transform="translate(319,126)"/>
<path d="M0 0 C2.58298041 1.35946338 4.59617965 2.46769136 6.375 4.8125 C7.22067535 7.77236371 6.67395179 10.03461211 6 13 C5.34 12.67 4.68 12.34 4 12 C3.855625 10.865625 3.71125 9.73125 3.5625 8.5625 C3.376875 7.386875 3.19125 6.21125 3 5 C2.01 4.34 1.02 3.68 0 3 C0 2.01 0 1.02 0 0 Z " fill="#060606" transform="translate(25,84)"/>
<path d="M0 0 C0.75 1.625 0.75 1.625 1 4 C-0.68761182 7.12520707 -2.1305619 9.39402799 -5.0625 11.4375 C-7 12 -7 12 -10 11 C-8.63875 10.2265625 -8.63875 10.2265625 -7.25 9.4375 C-3.48237384 6.96443733 -1.9915852 3.98317039 0 0 Z " fill="#171619" transform="translate(723,121)"/>
<path d="M0 0 C0.66 0 1.32 0 2 0 C1.39254603 4.85963179 -0.72758967 8.7405518 -3 13 C-3.66 12.01 -4.32 11.02 -5 10 C-3.35 6.7 -1.7 3.4 0 0 Z " fill="#1D1C20" transform="translate(268,62)"/>
<path d="M0 0 C5.01830384 1.4338011 7.13712499 3.7898897 10 8 C9.6328125 10.1953125 9.6328125 10.1953125 9 12 C6 8 3 4 0 0 Z " fill="#1D1C20" transform="translate(714,90)"/>
<path d="M0 0 C5.94 0 11.88 0 18 0 C18 0.66 18 1.32 18 2 C5.33029613 3.51708428 5.33029613 3.51708428 0 1 C0 0.67 0 0.34 0 0 Z " fill="#1C1924" transform="translate(404,126)"/>
<path d="M0 0 C3.64775386 3.88309282 4.58525633 6.71201818 5 12 C2.1673866 10.5836933 1.98292167 8.85502707 0.875 5.9375 C0.52179687 5.01839844 0.16859375 4.09929687 -0.1953125 3.15234375 C-0.46085938 2.44207031 -0.72640625 1.73179688 -1 1 C-0.67 0.67 -0.34 0.34 0 0 Z " fill="#1F1D24" transform="translate(807,91)"/>
<path d="M0 0 C0.66 0 1.32 0 2 0 C4.24828052 4.49656104 4.16682272 8.07872966 4 13 C3.67 13 3.34 13 3 13 C3 11.35 3 9.7 3 8 C2.34 8 1.68 8 1 8 C0.34 5.69 -0.32 3.38 -1 1 C-0.67 0.67 -0.34 0.34 0 0 Z " fill="#080809" transform="translate(63,11)"/>
<path d="M0 0 C1.1446875 0.12375 1.1446875 0.12375 2.3125 0.25 C2.3125 0.91 2.3125 1.57 2.3125 2.25 C0.125 3.6875 0.125 3.6875 -2.6875 5.25 C-3.615625 5.806875 -4.54375 6.36375 -5.5 6.9375 C-6.221875 7.370625 -6.94375 7.80375 -7.6875 8.25 C-4.03125 0.375 -4.03125 0.375 0 0 Z " fill="#19171A" transform="translate(77.6875,130.75)"/>
<path d="M0 0 C6.52307692 1.47692308 6.52307692 1.47692308 8.9375 4.125 C9.288125 4.74375 9.63875 5.3625 10 6 C9.01 6.495 9.01 6.495 8 7 C5 5 2 3 -1 1 C-0.67 0.67 -0.34 0.34 0 0 Z " fill="#070707" transform="translate(604,54)"/>
<path d="M0 0 C0.66 0.99 1.32 1.98 2 3 C0.73160474 3.50615298 -0.53983102 4.00469099 -1.8125 4.5 C-2.87404297 4.91765625 -2.87404297 4.91765625 -3.95703125 5.34375 C-6 6 -6 6 -9 6 C-9 5.34 -9 4.68 -9 4 C-6.09432866 1.98217268 -3.48330216 0.64505596 0 0 Z " fill="#1A191E" transform="translate(574,41)"/>
<path d="M0 0 C0.99 0 1.98 0 3 0 C1.6062718 4.43458973 -0.60582235 6.87378374 -4 10 C-4.1875 7.6875 -4.1875 7.6875 -4 5 C-2.5625 3.3125 -2.5625 3.3125 -1 2 C-0.67 1.34 -0.34 0.68 0 0 Z " fill="#070708" transform="translate(63,25)"/>
<path d="M0 0 C3.01326538 0.32284986 4.03461538 1.03365384 6.25 3.1875 C8.27011863 6.43411922 8.34907695 8.24742282 8 12 C5.33333333 8 2.66666667 4 0 0 Z " fill="#1C1B1D" transform="translate(175,0)"/>
<path d="M0 0 C0.66 0.99 1.32 1.98 2 3 C-2.5 7 -2.5 7 -7 7 C-7 6.34 -7 5.68 -7 5 C-5.03277992 3.61876037 -3.03131672 2.28511874 -1 1 C-0.67 0.67 -0.34 0.34 0 0 Z " fill="#0A0A0A" transform="translate(178,175)"/>
<path d="M0 0 C-0.5775 0.12375 -1.155 0.2475 -1.75 0.375 C-5.60951292 1.44708692 -7.46943906 2.20415859 -9.75 5.625 C-10.1625 6.40875 -10.575 7.1925 -11 8 C-12 5 -12 5 -10.8125 2.375 C-9 0 -9 0 -7.125 -0.875 C-4.59542424 -1.02379857 -2.45069642 -0.6126741 0 0 Z " fill="#151519" transform="translate(50,151)"/>
<path d="M0 0 C-0.53625 0.2475 -1.0725 0.495 -1.625 0.75 C-4.19107587 2.03214677 -4.19107587 2.03214677 -7.0625 4.1875 C-8.5165625 5.0846875 -8.5165625 5.0846875 -10 6 C-10.99 5.67 -11.98 5.34 -13 5 C-8.55011262 1.27171598 -5.82569178 -0.15745113 0 0 Z " fill="#1A191C" transform="translate(90,76)"/>
<path d="M0 0 C2.52394612 3.12488567 4.39701907 6.31314387 6 10 C5.67 10.66 5.34 11.32 5 12 C0.17857143 6.21428571 0.17857143 6.21428571 -1 3 C-0.67 2.01 -0.34 1.02 0 0 Z " fill="#070707" transform="translate(63,37)"/>
<path d="M0 0 C6.93 0.495 6.93 0.495 14 1 C14 1.33 14 1.66 14 2 C10.04 2 6.08 2 2 2 C2 3.98 2 5.96 2 8 C0.23537317 4.91190305 0 3.76687864 0 0 Z " fill="#212024" transform="translate(476,42)"/>
<path d="M0 0 C0.66 0 1.32 0 2 0 C2.36923077 5.53846154 2.36923077 5.53846154 0.5 7.875 C-0.2425 8.431875 -0.2425 8.431875 -1 9 C-2.25541557 5.23375329 -1.37061958 3.62811066 0 0 Z " fill="#080809" transform="translate(58,85)"/>
<path d="M0 0 C6.75 -0.125 6.75 -0.125 9 1 C8.67 1.66 8.34 2.32 8 3 C5.36 2.67 2.72 2.34 0 2 C0 1.34 0 0.68 0 0 Z " fill="#18181D" transform="translate(141,106)"/>
<path d="M0 0 C0.99 0 1.98 0 3 0 C3 1.32 3 2.64 3 4 C4.65 3.67 6.3 3.34 8 3 C7.67 3.99 7.34 4.98 7 6 C4.03 5.505 4.03 5.505 1 5 C0.67 3.35 0.34 1.7 0 0 Z " fill="#040504" transform="translate(129,97)"/>
<path d="M0 0 C2.83374881 3.20336822 3.5205537 5.78087253 4 10 C3.34 10 2.68 10 2 10 C1.01 7.03 0.02 4.06 -1 1 C-0.67 0.67 -0.34 0.34 0 0 Z " fill="#17161A" transform="translate(786,74)"/>
<path d="M0 0 C1.66666667 1.66666667 3.33333333 3.33333333 5 5 C5.8971875 5.8353125 5.8971875 5.8353125 6.8125 6.6875 C8 8 8 8 8 10 C7.34 10 6.68 10 6 10 C6 9.34 6 8.68 6 8 C5.38125 7.79375 4.7625 7.5875 4.125 7.375 C1.15346355 5.45224112 0.86975341 3.33405473 0 0 Z " fill="#19181B" transform="translate(36,25)"/>
<path d="M0 0 C0.33 0.99 0.66 1.98 1 3 C0 4 0 4 -3.0625 4.0625 C-4.5165625 4.0315625 -4.5165625 4.0315625 -6 4 C-5.67 3.01 -5.34 2.02 -5 1 C-3.35 0.67 -1.7 0.34 0 0 Z " fill="#090A0A" transform="translate(50,164)"/>
<path d="M0 0 C0.66 0 1.32 0 2 0 C1.5359375 1.1446875 1.5359375 1.1446875 1.0625 2.3125 C0.32106407 4.18789677 -0.36228217 6.08684652 -1 8 C-1.99 8.33 -2.98 8.66 -4 9 C-2.94124926 5.59687262 -1.99097846 2.98646769 0 0 Z " fill="#171419" transform="translate(562,65)"/>
<path d="M0 0 C2.32472205 2.85306797 3.7508258 5.54074837 5 9 C4.01 9 3.02 9 2 9 C0.93347808 6.69631264 -0.06421005 4.35981813 -1 2 C-0.67 1.34 -0.34 0.68 0 0 Z " fill="#040504" transform="translate(70,50)"/>
<path d="M0 0 C0.99 0.495 0.99 0.495 2 1 C2 1.66 2 2.32 2 3 C2.66 3 3.32 3 4 3 C4.66 4.65 5.32 6.3 6 8 C5.01 8 4.02 8 3 8 C0 2.25 0 2.25 0 0 Z " fill="#161618" transform="translate(368,108)"/>
<path d="M0 0 C0.33 0 0.66 0 1 0 C1.28571429 7.42857143 1.28571429 7.42857143 -1 11 C-1.33 11 -1.66 11 -2 11 C-1 3.57142857 -1 3.57142857 0 0 Z " fill="#161618" transform="translate(624,100)"/>
<path d="M0 0 C2.31 0 4.62 0 7 0 C7 0.99 7 1.98 7 3 C4.69 2.67 2.38 2.34 0 2 C0 1.34 0 0.68 0 0 Z " fill="#1C1A1D" transform="translate(45,91)"/>
<path d="M0 0 C2.62187494 1.04874998 3.79371361 1.64931313 5.25 4.125 C5.4975 4.74375 5.745 5.3625 6 6 C4.125 5.75 4.125 5.75 2 5 C0 1.8 0 1.8 0 0 Z " fill="#050506" transform="translate(29,80)"/>
<path d="M0 0 C2.33944736 0.28730055 4.6739143 0.61936779 7 1 C7 1.66 7 2.32 7 3 C4.125 3.125 4.125 3.125 1 3 C0.34 2.34 -0.32 1.68 -1 1 C-0.67 0.67 -0.34 0.34 0 0 Z " fill="#18171C" transform="translate(579,125)"/>
<path d="M0 0 C2 1 2 1 4 4 C4.125 6.6875 4.125 6.6875 4 9 C1.74754119 6.31158141 0.11786042 4.35358125 -1 1 C-0.67 0.67 -0.34 0.34 0 0 Z " fill="#090909" transform="translate(548,115)"/>
<path d="M0 0 C-2.95664519 1.4783226 -5.74229737 1.06032783 -9 1 C-9 0.34 -9 -0.32 -9 -1 C-3.375 -2.25 -3.375 -2.25 0 0 Z " fill="#1B1A1E" transform="translate(28,106)"/>
<path d="M0 0 C0.66 0.66 1.32 1.32 2 2 C0.71034824 3.37562854 -0.62689293 4.70766393 -2 6 C-2.66 6 -3.32 6 -4 6 C-2.84826645 3.53199953 -1.95216435 1.95216435 0 0 Z " fill="#050504" transform="translate(66,73)"/>
<path d="M0 0 C-2 2 -2 2 -5.625 2.125 C-6.73875 2.08375 -7.8525 2.0425 -9 2 C-8.67 1.34 -8.34 0.68 -8 0 C-4.71585695 -0.95067299 -3.30306592 -1.10102197 0 0 Z " fill="#1F1D23" transform="translate(408,41)"/>
</svg>
